<svg width="59" height="59" xmlns="http://www.w3.org/2000/svg" xmlns:xlink="http://www.w3.org/1999/xlink" overflow="hidden"><defs><clipPath id="clip0"><rect x="104" y="123" width="59" height="59"/></clipPath></defs><g clip-path="url(#clip0)" transform="translate(-104 -123)"><path d="M153.167 163.562C153.135 162.023 152.413 160.579 151.2 159.629 148.496 157.417 145.054 155.942 141.613 154.958 138.983 154.153 136.25 153.739 133.5 153.729 130.753 153.777 128.025 154.19 125.387 154.958 121.95 155.961 118.708 157.541 115.8 159.629 114.587 160.579 113.865 162.023 113.833 163.562L113.833 173.396 153.167 173.396Z" fill="#FFFFFF"/><path d="M144.016 148.567C143.45 146.354 145.613 140.823 145.632 136.926 145.632 133.811 144.747 132.415 143.075 131.469 142.11 130.922 139.886 131.426 139.886 131.426 139.886 131.426 138.736 129.25 134.889 128.052 131.728 127.191 128.354 127.622 125.51 129.25 123.132 130.787 121.983 132.477 121.927 138.291 121.878 143.619 122.61 148.352 122.272 150.583 122.116 151.817 121.646 152.992 120.907 153.993 120.907 153.993 124.595 154.467 126.654 153.379 127.69 152.684 128.672 151.911 129.591 151.068 126.437 149.597 124.138 146.753 123.359 143.361 123.279 143.066 122.745 141.136 123.599 140.055 124.066 139.44 125.136 139.268 126.918 138.955 129.051 138.674 131.133 138.088 133.101 137.215 135.312 136.103 137.363 134.698 139.197 133.036 139.439 132.798 139.828 132.801 140.066 133.043 140.157 133.135 140.216 133.253 140.236 133.38 140.382 134.391 140.734 135.362 141.268 136.232 141.519 136.553 141.827 136.824 142.178 137.031 142.587 137.276 142.939 137.605 143.21 137.996 143.654 138.862 143.906 139.814 143.948 140.786 143.908 145.271 141.243 149.316 137.138 151.123 137.913 151.806 138.927 152.648 140.045 153.459 141.889 154.792 146.345 152.949 146.345 152.949 146.345 152.949 144.907 152.088 144.016 148.567Z" fill="#FFFFFF"/><path d="M142.719 140.823C142.686 140.08 142.506 139.351 142.19 138.678 142.01 138.424 141.775 138.214 141.502 138.063 141.032 137.78 140.616 137.416 140.273 136.988 139.778 136.276 139.422 135.478 139.222 134.634 137.506 136.075 135.629 137.312 133.629 138.322 131.553 139.245 129.355 139.866 127.102 140.165 126.064 140.35 124.767 140.577 124.546 140.811 124.177 141.29 124.367 142.513 124.546 143.029 125.596 147.46 129.358 150.656 133.5 150.656 138.417 150.656 142.719 146.059 142.719 140.823Z" fill="#FFFFFF"/></g></svg>